<svg width="64" height="64" viewBox="0 0 64 64" fill="none" xmlns="http://www.w3.org/2000/svg">
<path d="M48.8108 10.9545L53.1601 2.65967L45.7477 10.2476L48.8108 10.9545Z" fill="white" style="fill:white;fill-opacity:1;"/>
<path d="M49.9824 42.2628L46.2666 45.0496L57.8884 50.5934L49.9824 42.2628Z" fill="white" style="fill:white;fill-opacity:1;"/>
<path d="M22.6957 48.7721L18.7538 45.8156L10.8396 60.9089L22.6957 48.7721Z" fill="white" style="fill:white;fill-opacity:1;"/>
<path d="M7.94266 14.9048L8.16221 13.9535L6.11133 12.9752L7.94266 14.9048Z" fill="white" style="fill:white;fill-opacity:1;"/>
<path d="M11 15L24 12L29 19L32 24V52L16 40L8 28L11 15Z" fill="#FD9AB5" style="fill:#FD9AB5;fill:color(display-p3 0.9922 0.6039 0.7098);fill-opacity:1;"/>
<path d="M11 15L24 12L16 21L11 15Z" fill="#FEC5D4" style="fill:#FEC5D4;fill:color(display-p3 0.9963 0.7721 0.8333);fill-opacity:1;"/>
<path d="M16 21L13.5 28.5L32 24L29 19L16 21Z" fill="#FEC5D4" style="fill:#FEC5D4;fill:color(display-p3 0.9963 0.7721 0.8333);fill-opacity:1;"/>
<path d="M32 52L16 40L26 45L32 52Z" fill="#FEC5D4" style="fill:#FEC5D4;fill:color(display-p3 0.9963 0.7721 0.8333);fill-opacity:1;"/>
<path d="M32 24V47L26 45L32 24Z" fill="#FC779B" style="fill:#FC779B;fill:color(display-p3 0.9894 0.4649 0.6080);fill-opacity:1;"/>
<path d="M13.5 28.4999L8 28L16 39.9999L13.5 28.4999Z" fill="#FEC5D4" style="fill:#FEC5D4;fill:color(display-p3 0.9963 0.7721 0.8333);fill-opacity:1;"/>
<path d="M53 15L40 12L35 19L32 24V52L48 40L56 28L53 15Z" fill="#FC779B" style="fill:#FC779B;fill:color(display-p3 0.9894 0.4649 0.6080);fill-opacity:1;"/>
<path d="M53 15L40 12L48 21L53 15Z" fill="#FEC5D4" style="fill:#FEC5D4;fill:color(display-p3 0.9963 0.7721 0.8333);fill-opacity:1;"/>
<path d="M48 21L50.5 28.5L32 24L35 19L48 21Z" fill="#FD9AB5" style="fill:#FD9AB5;fill:color(display-p3 0.9922 0.6039 0.7098);fill-opacity:1;"/>
<path d="M32 52L48 40L38 45L32 52Z" fill="#FD9AB5" style="fill:#FD9AB5;fill:color(display-p3 0.9922 0.6039 0.7098);fill-opacity:1;"/>
<path d="M32 24V47L38 45L32 24Z" fill="#FD9AB5" style="fill:#FD9AB5;fill:color(display-p3 0.9922 0.6039 0.7098);fill-opacity:1;"/>
<path d="M50.5 28.4999L56 28L48 39.9999L50.5 28.4999Z" fill="#FD9AB5" style="fill:#FD9AB5;fill:color(display-p3 0.9922 0.6039 0.7098);fill-opacity:1;"/>
<path fill-rule="evenodd" clip-rule="evenodd" d="M32 8.78442C38.6274 8.78442 44 7.44128 44 5.78442C44 4.12757 38.6274 2.78442 32 2.78442C25.3726 2.78442 20 4.12757 20 5.78442C20 7.44128 25.3726 8.78442 32 8.78442ZM32 6.78442C36.9706 6.78442 41 6.11285 41 5.28442C41 4.456 36.9706 3.78442 32 3.78442C27.0294 3.78442 23 4.456 23 5.28442C23 6.11285 27.0294 6.78442 32 6.78442Z" fill="white" style="fill:white;fill-opacity:1;"/>
</svg>
