<svg width="64" height="64" viewBox="0 0 64 64" fill="none" xmlns="http://www.w3.org/2000/svg">
<path d="M8.26667 10.4089L21.1234 6.84469L26.424 13.6199L29.6393 18.4843L30.8606 46.4577L14.3524 35.167L5.83658 23.5274L8.26667 10.4089Z" fill="#CBD1D9" style="fill:#CBD1D9;fill:color(display-p3 0.7977 0.8183 0.8493);fill-opacity:1;"/>
<path d="M8.26758 10.4089L21.1243 6.84469L13.5245 16.1851L8.26758 10.4089Z" fill="#DFE5EE" style="fill:#DFE5EE;fill:color(display-p3 0.8763 0.8991 0.9333);fill-opacity:1;"/>
<path d="M13.5243 16.1851L11.3538 23.787L29.6399 18.4843L26.4247 13.6199L13.5243 16.1851Z" fill="#DFE5EE" style="fill:#DFE5EE;fill:color(display-p3 0.8763 0.8991 0.9333);fill-opacity:1;"/>
<path d="M30.8598 46.4577L14.3516 35.167L24.5601 39.726L30.8598 46.4577Z" fill="#DFE5EE" style="fill:#DFE5EE;fill:color(display-p3 0.8763 0.8991 0.9333);fill-opacity:1;"/>
<path d="M29.6388 18.4843L30.6421 41.4624L24.5605 39.726L29.6388 18.4843Z" fill="#A6B5C3" style="fill:#A6B5C3;fill:color(display-p3 0.6525 0.7089 0.7653);fill-opacity:1;"/>
<path d="M11.3525 23.7869L5.83594 23.5273L14.3518 35.1669L11.3525 23.7869Z" fill="#DFE5EE" style="fill:#DFE5EE;fill:color(display-p3 0.8763 0.8991 0.9333);fill-opacity:1;"/>
<path d="M59.0012 20.7832L46.703 15.6108L40.5828 21.6559L36.7743 26.0712L32.0006 53.6613L49.8122 44.5648L59.7409 34.1044L59.0012 20.7832Z" fill="#A6B5C3" style="fill:#A6B5C3;fill:color(display-p3 0.6525 0.7089 0.7653);fill-opacity:1;"/>
<path d="M59.0022 20.7832L46.704 15.6108L53.0525 25.8429L59.0022 20.7832Z" fill="#F8FAFB" style="fill:#F8FAFB;fill:color(display-p3 0.9720 0.9793 0.9824);fill-opacity:1;"/>
<path d="M53.0511 25.843L54.2358 33.6594L36.7739 26.0712L40.5824 21.6559L53.0511 25.843Z" fill="#CBD1D9" style="fill:#CBD1D9;fill:color(display-p3 0.7977 0.8183 0.8493);fill-opacity:1;"/>
<path d="M32.0009 53.6613L49.8125 44.5648L39.1065 47.7867L32.0009 53.6613Z" fill="#CBD1D9" style="fill:#CBD1D9;fill:color(display-p3 0.7977 0.8183 0.8493);fill-opacity:1;"/>
<path d="M36.7753 26.0713L32.8541 48.7346L39.1072 47.7868L36.7753 26.0713Z" fill="#CBD1D9" style="fill:#CBD1D9;fill:color(display-p3 0.7977 0.8183 0.8493);fill-opacity:1;"/>
<path d="M54.2355 33.6593L59.7402 34.1044L49.8115 44.5647L54.2355 33.6593Z" fill="#CBD1D9" style="fill:#CBD1D9;fill:color(display-p3 0.7977 0.8183 0.8493);fill-opacity:1;"/>
</svg>
