<svg width="64" height="64" viewBox="0 0 64 64" fill="none" xmlns="http://www.w3.org/2000/svg">
<path d="M11 15L24 12L29 19L32 24V52L16 40L8 28L11 15Z" fill="#FD9AB5" style="fill:#FD9AB5;fill:color(display-p3 0.9922 0.6039 0.7098);fill-opacity:1;"/>
<path d="M11 15L24 12L16 21L11 15Z" fill="#FEC5D4" style="fill:#FEC5D4;fill:color(display-p3 0.9963 0.7721 0.8333);fill-opacity:1;"/>
<path d="M16 21L13.5 28.5L32 24L29 19L16 21Z" fill="#FEC5D4" style="fill:#FEC5D4;fill:color(display-p3 0.9963 0.7721 0.8333);fill-opacity:1;"/>
<path d="M32 52L16 40L26 45L32 52Z" fill="#FEC5D4" style="fill:#FEC5D4;fill:color(display-p3 0.9963 0.7721 0.8333);fill-opacity:1;"/>
<path d="M32 24V47L26 45L32 24Z" fill="#FC779B" style="fill:#FC779B;fill:color(display-p3 0.9894 0.4649 0.6080);fill-opacity:1;"/>
<path d="M13.5 28.4999L8 28L16 39.9999L13.5 28.4999Z" fill="#FEC5D4" style="fill:#FEC5D4;fill:color(display-p3 0.9963 0.7721 0.8333);fill-opacity:1;"/>
<path d="M53 15L40 12L35 19L32 24V52L48 40L56 28L53 15Z" fill="#FC779B" style="fill:#FC779B;fill:color(display-p3 0.9894 0.4649 0.6080);fill-opacity:1;"/>
<path d="M53 15L40 12L48 21L53 15Z" fill="#FEC5D4" style="fill:#FEC5D4;fill:color(display-p3 0.9963 0.7721 0.8333);fill-opacity:1;"/>
<path d="M48 21L50.5 28.5L32 24L35 19L48 21Z" fill="#FD9AB5" style="fill:#FD9AB5;fill:color(display-p3 0.9922 0.6039 0.7098);fill-opacity:1;"/>
<path d="M32 52L48 40L38 45L32 52Z" fill="#FD9AB5" style="fill:#FD9AB5;fill:color(display-p3 0.9922 0.6039 0.7098);fill-opacity:1;"/>
<path d="M32 24V47L38 45L32 24Z" fill="#FD9AB5" style="fill:#FD9AB5;fill:color(display-p3 0.9922 0.6039 0.7098);fill-opacity:1;"/>
<path d="M50.5 28.4999L56 28L48 39.9999L50.5 28.4999Z" fill="#FD9AB5" style="fill:#FD9AB5;fill:color(display-p3 0.9922 0.6039 0.7098);fill-opacity:1;"/>
</svg>
